<?xml version="1.0" encoding="UTF-8" standalone="no"?>
<!DOCTYPE svg PUBLIC "-//W3C//DTD SVG 1.1//EN" "http://www.w3.org/Graphics/SVG/1.1/DTD/svg11.dtd">
<!-- Created with Vectornator (http://vectornator.io/) -->
<svg height="100%" stroke-miterlimit="10" style="fill-rule:nonzero;clip-rule:evenodd;stroke-linecap:round;stroke-linejoin:round;" version="1.1" viewBox="0 0 1024 1024" width="100%" xml:space="preserve" xmlns="http://www.w3.org/2000/svg" xmlns:vectornator="http://vectornator.io" xmlns:xlink="http://www.w3.org/1999/xlink">
<defs/>
<g id="Layer-1" vectornator:layerName="Layer 1"/>
<g id="Layer-3" vectornator:layerName="Layer 3"/>
<g id="Layer-2" vectornator:layerName="Layer 2">
<g opacity="1">
<path d="M24.5 513.139L267.263 90.3823L754.763 89.243L999.5 510.861L756.737 933.618L269.237 934.757L24.5 513.139Z" fill="none" opacity="1" stroke="#000000" stroke-linecap="butt" stroke-linejoin="round" stroke-width="40"/>
<path d="M323.75 241.281C317.5 241.281 311.25 245.448 311.25 253.781L311.25 763.406C311.25 780.073 336.25 780.073 336.25 763.406C336.25 762.411 336.25 254.777 336.25 253.781C336.25 245.448 330 241.281 323.75 241.281Z" fill="#000000" fill-rule="nonzero" opacity="1" stroke="none"/>
<path d="M323.656 241.25C316.754 241.365 311.229 247.066 311.344 253.969C311.458 260.871 317.16 266.365 324.062 266.25C396.972 265.041 448.004 278.835 476.344 303.875C500.058 324.828 506.984 353.397 497.562 385.25C487.527 419.179 454.704 437.496 396.438 448.562C388.613 450.049 380.391 451.435 370.594 452.906C364.953 453.753 346.115 456.455 345.594 456.531C338.672 457.543 333.307 458.372 328.344 459.219C321.538 460.38 316.964 466.82 318.125 473.625C319.286 480.43 325.757 485.005 332.562 483.844C337.296 483.036 342.477 482.235 349.219 481.25C349.669 481.184 368.575 478.487 374.312 477.625C384.403 476.11 392.912 474.679 401.094 473.125C430.755 467.491 454.089 460.239 473.375 449.469C497.64 435.918 514.175 417.215 521.531 392.344C533.6 351.54 524.233 312.805 492.906 285.125C459.175 255.321 402.245 239.946 323.656 241.25Z" fill="#000000" fill-rule="nonzero" opacity="1" stroke="none"/>
<path d="M327.656 473.969C320.755 473.789 315.024 479.224 314.844 486.125C314.664 493.026 320.13 498.757 327.031 498.938C386.858 500.499 435.095 511.659 468.469 531.812C502.251 552.213 520.342 581.444 521.938 619.938C523.479 657.123 502.51 691.157 464.219 716.094C426.425 740.707 375.446 753.774 324.938 751.312C318.042 750.976 312.18 756.292 311.844 763.188C311.508 770.083 316.823 775.945 323.719 776.281C379.37 778.993 435.574 764.579 477.875 737.031C523.049 707.613 548.846 665.716 546.906 618.906C544.955 571.835 522.182 535.08 481.375 510.438C443.793 487.743 391.458 475.634 327.656 473.969Z" fill="#000000" fill-rule="nonzero" opacity="1" stroke="none"/>
<path d="M692.531 232.375C685.628 232.375 680.031 237.971 680.031 244.875L680.031 865.562C680.031 872.466 685.628 878.063 692.531 878.062C699.435 878.062 705.031 872.466 705.031 865.562L705.031 244.875C705.031 237.971 699.435 232.375 692.531 232.375Z" fill="#000000" fill-rule="nonzero" opacity="1" stroke="none"/>
<path d="M691.125 236.812C686.268 236.438 681.44 238.963 679.062 243.562L566.75 460.844C563.58 466.977 565.961 474.518 572.094 477.688C578.227 480.857 585.768 478.445 588.938 472.312L701.25 255.031C704.42 248.898 702.039 241.357 695.906 238.188C694.373 237.395 692.744 236.937 691.125 236.812Z" fill="#000000" fill-rule="nonzero" opacity="1" stroke="none"/>
<path d="M418.625 250.719C412.811 250.673 407.57 254.717 406.312 260.625C404.875 267.377 409.185 274.031 415.938 275.469C470.266 287.034 508.927 320.047 534.844 368.438C546.47 390.145 554.718 413.523 560.125 436.906C562.017 445.09 563.428 452.69 564.406 459.469C564.745 461.815 564.994 463.859 565.188 465.625C565.253 466.227 565.372 467.552 565.375 467.594C565.919 474.476 571.962 479.607 578.844 479.062C585.726 478.518 590.857 472.507 590.312 465.625C590.271 465.095 590.17 464.176 590.031 462.906C589.807 460.861 589.505 458.508 589.125 455.875C588.05 448.426 586.525 440.171 584.469 431.281C578.596 405.883 569.633 380.478 556.875 356.656C543.579 331.831 526.889 310.156 506.375 292.625C482.533 272.25 454.191 258.032 421.156 251C420.312 250.82 419.456 250.725 418.625 250.719Z" fill="#000000" fill-rule="nonzero" opacity="1" stroke="none"/>
</g>
</g>
<clipPath id="ArtboardFrame">
<rect height="1024" width="1024" x="0" y="0"/>
</clipPath>
<g clip-path="url(#ArtboardFrame)" id="Layer-4" vectornator:layerName="Layer 4" visibility="hidden">
<path d="M-50.8759 518.762L224.706 27.9164L787.582 21.154L1074.88 505.238L799.294 996.084L236.418 1002.85L-50.8759 518.762Z" fill="#ffffff" fill-rule="nonzero" opacity="1" stroke="#000000" stroke-linecap="butt" stroke-linejoin="round" stroke-width="20"/>
</g>
<g id="Layer-5" vectornator:layerName="Layer 5" visibility="hidden">
<g fill="#000000" opacity="1" stroke="none">
<path d="M873.769 634.524C873.938 635.448 874.25 636.321 874.706 637.143L883.207 622.421L889.044 625.791L875.71 648.886C873.327 647.427 871.417 645.632 869.981 643.5C868.279 641.257 867.188 637.65 866.709 632.68C866.286 628.363 865.861 625.482 865.435 624.037C864.759 621.806 863.545 620.185 861.793 619.174C860.366 618.35 858.952 618.061 857.549 618.305C856.147 618.55 855.021 619.409 854.17 620.882C853.006 622.897 852.966 624.704 854.049 626.301C854.676 627.221 855.912 628.266 857.759 629.435L854.04 635.877C851.234 634.113 849.216 632.255 847.985 630.304C845.641 626.594 845.772 622.483 848.377 617.971C850.436 614.405 853.063 612.138 856.257 611.171C859.452 610.204 862.677 610.66 865.933 612.54C868.429 613.982 870.217 616.006 871.295 618.613C872.018 620.333 872.526 622.766 872.818 625.912L873.171 629.651C873.391 631.99 873.591 633.615 873.769 634.524Z" fill="#000000"/>
<path d="M898.556 611.251C896.076 615.546 892.833 617.689 888.827 617.681C884.821 617.673 880.035 616.062 874.469 612.848C868.903 609.634 865.107 606.29 863.082 602.816C861.057 599.341 861.284 595.457 863.764 591.162C866.243 586.867 869.494 584.728 873.516 584.745C877.537 584.762 882.331 586.377 887.897 589.591C893.464 592.805 897.252 596.145 899.261 599.61C901.271 603.076 901.036 606.956 898.556 611.251ZM883.949 596.429C879.887 594.083 876.702 592.653 874.395 592.137C872.088 591.622 870.366 592.348 869.229 594.317C868.092 596.287 868.317 598.153 869.903 599.917C871.49 601.68 874.314 603.735 878.377 606.08C882.253 608.319 885.402 609.713 887.823 610.263C890.244 610.814 892.024 610.105 893.161 608.135C894.298 606.166 894.016 604.282 892.315 602.484C890.614 600.685 887.826 598.667 883.949 596.429Z" fill="#000000"/>
<path d="M904.359 581.544C904.528 582.469 904.841 583.342 905.297 584.163L913.797 569.441L919.634 572.812L906.3 595.906C903.917 594.448 902.007 592.652 900.571 590.521C898.869 588.277 897.778 584.67 897.299 579.7C896.876 575.384 896.452 572.502 896.025 571.057C895.349 568.827 894.135 567.206 892.383 566.194C890.956 565.37 889.542 565.081 888.14 565.326C886.737 565.57 885.611 566.429 884.76 567.902C883.596 569.918 883.556 571.724 884.639 573.321C885.266 574.241 886.503 575.286 888.349 576.456L884.63 582.898C881.824 581.133 879.806 579.275 878.576 577.324C876.232 573.614 876.362 569.503 878.967 564.991C881.026 561.425 883.653 559.159 886.847 558.191C890.042 557.224 893.267 557.681 896.523 559.561C899.019 561.002 900.807 563.026 901.885 565.634C902.608 567.354 903.116 569.786 903.408 572.932L903.761 576.671C903.982 579.011 904.181 580.635 904.359 581.544Z" fill="#000000"/>
<path d="M898.998 546.198C899.561 547.515 900.68 548.637 902.357 549.564L898.785 555.75C897.147 554.721 895.723 553.517 894.514 552.137C893.51 550.833 892.785 549.278 892.34 547.47C892.051 546.145 892.041 544.765 892.312 543.329C892.583 541.894 893.219 540.308 894.222 538.571C896.084 535.346 898.419 533.227 901.228 532.212C904.036 531.198 906.843 531.501 909.649 533.121C911.634 534.267 912.968 535.823 913.652 537.789C914.075 539.026 914.209 540.137 914.054 541.122C914.403 540.517 915.424 539.949 917.116 539.417C919.658 538.631 922.285 539.021 924.999 540.588C927.851 542.235 929.789 544.672 930.81 547.898C931.832 551.123 931.223 554.674 928.985 558.55C926.228 563.326 922.754 565.744 918.563 565.805C916.34 565.824 913.856 565.113 911.111 563.673L914.871 557.161C916.22 557.94 917.462 558.368 918.596 558.444C920.69 558.578 922.35 557.582 923.576 555.458C924.328 554.156 924.538 552.763 924.206 551.279C923.874 549.795 922.871 548.57 921.196 547.603C918.979 546.323 916.979 546.367 915.197 547.736C914.187 548.517 913.047 550.009 911.775 552.211L907.031 549.471C908.244 547.298 908.903 545.673 909.008 544.597C909.208 542.748 908.315 541.251 906.33 540.105C905.043 539.362 903.78 539.133 902.539 539.42C901.299 539.706 900.285 540.532 899.497 541.896C898.593 543.462 898.426 544.896 898.998 546.198Z" fill="#000000"/>
</g>
</g>
</svg>
