<svg xmlns="http://www.w3.org/2000/svg" style="fill-rule:nonzero;clip-rule:evenodd;stroke-linecap:round;stroke-linejoin:round" viewBox="0 0 1024 1024" preserveAspectRatio="xMidYMid meet">
  <g shape-rendering="geometricPrecision">
    <path fill="none" stroke="currentColor" stroke-linecap="butt" stroke-width="50" d="M24.5 513.139 267.263 90.382l487.5-1.139L999.5 510.861 756.737 933.618l-487.5 1.139L24.5 513.139Z"/>
    <path fill="currentColor" d="M323.75 241.281c-6.25 0-12.5 4.167-12.5 12.5v509.625c0 16.667 25 16.667 25 0V253.781c0-8.333-6.25-12.5-12.5-12.5Z"/>
    <path fill="currentColor" d="M323.656 241.25c-6.902.115-12.427 5.816-12.312 12.719.114 6.902 5.816 12.396 12.718 12.281 72.91-1.209 123.942 12.585 152.282 37.625 23.714 20.953 30.64 49.522 21.218 81.375-10.035 33.929-42.858 52.246-101.124 63.312-7.825 1.487-16.047 2.873-25.844 4.344-5.641.847-24.479 3.549-25 3.625-6.922 1.012-12.287 1.841-17.25 2.688-6.806 1.161-11.38 7.601-10.219 14.406 1.161 6.805 7.632 11.38 14.437 10.219 4.734-.808 9.915-1.609 16.657-2.594.45-.066 19.356-2.763 25.093-3.625 10.091-1.515 18.6-2.946 26.782-4.5 29.661-5.634 52.995-12.886 72.281-23.656 24.265-13.551 40.8-32.254 48.156-57.125 12.069-40.804 2.702-79.539-28.625-107.219-33.731-29.804-90.661-45.179-169.25-43.875Z"/>
    <path fill="currentColor" d="M327.656 473.969c-6.901-.18-12.632 5.255-12.812 12.156-.18 6.901 5.286 12.632 12.187 12.813 59.827 1.561 108.064 12.721 141.438 32.874 33.782 20.401 51.873 49.632 53.469 88.126 1.541 37.185-19.428 71.219-57.719 96.156-37.794 24.613-88.773 37.68-139.281 35.218-6.896-.336-12.758 4.98-13.094 11.876-.336 6.895 4.979 12.757 11.875 13.093 55.651 2.712 111.855-11.702 154.156-39.25 45.174-29.418 70.971-71.315 69.031-118.125-1.951-47.071-24.724-83.826-65.531-108.468-37.582-22.695-89.917-34.804-153.719-36.469Zm364.875-241.594c-6.903 0-12.5 5.596-12.5 12.5v620.687c0 6.904 5.597 12.501 12.5 12.5 6.904 0 12.5-5.596 12.5-12.5V244.875c0-6.904-5.596-12.5-12.5-12.5Z"/>
    <path fill="currentColor" d="M691.125 236.812a12.514 12.514 0 0 0-12.063 6.75L566.75 460.844c-3.17 6.133-.789 13.674 5.344 16.844 6.133 3.169 13.674.757 16.844-5.376L701.25 255.031c3.17-6.133.789-13.674-5.344-16.843a12.515 12.515 0 0 0-4.781-1.376Z"/>
    <path fill="currentColor" d="M418.625 250.719c-5.814-.046-11.055 3.998-12.313 9.906-1.437 6.752 2.873 13.406 9.626 14.844 54.328 11.565 92.989 44.578 118.906 92.969 11.626 21.707 19.874 45.085 25.281 68.468 1.892 8.184 3.303 15.784 4.281 22.563.339 2.346.588 4.39.782 6.156.065.602.184 1.927.187 1.969.544 6.882 6.587 12.013 13.469 11.468 6.882-.544 12.013-6.555 11.468-13.437-.041-.53-.142-1.449-.281-2.719a209.68 209.68 0 0 0-.906-7.031c-1.075-7.449-2.6-15.704-4.656-24.594-5.873-25.398-14.836-50.803-27.594-74.625-13.296-24.825-29.986-46.5-50.5-64.031-23.842-20.375-52.184-34.593-85.219-41.625-.844-.18-1.7-.275-2.531-.281Z"/>
  </g>
</svg>